<mxfile host="app.diagrams.net" modified="2020-07-01T10:00:49.084Z" agent="5.0 (Macintosh; Intel Mac OS X 10_15_5) AppleWebKit/537.36 (KHTML, like Gecko) Chrome/83.0.4103.116 Safari/537.36" etag="YI4m_6J9mYbPMiFgMp0Y" version="13.3.5" type="github">
  <diagram id="ZP2TG03qfkL2DJtYmvDO" name="Page-1">
    <mxGraphModel dx="1426" dy="740" grid="1" gridSize="10" guides="1" tooltips="1" connect="1" arrows="1" fold="1" page="1" pageScale="1" pageWidth="827" pageHeight="1169" math="0" shadow="0">
      <root>
        <mxCell id="0" />
        <mxCell id="1" parent="0" />
        <mxCell id="2bRfoJ32zqvtklQtxoyz-49" style="edgeStyle=orthogonalEdgeStyle;rounded=0;orthogonalLoop=1;jettySize=auto;html=1;exitX=1;exitY=0.5;exitDx=0;exitDy=0;entryX=0;entryY=0.5;entryDx=0;entryDy=0;" edge="1" parent="1" source="2bRfoJ32zqvtklQtxoyz-44" target="2bRfoJ32zqvtklQtxoyz-48">
          <mxGeometry relative="1" as="geometry" />
        </mxCell>
        <mxCell id="2bRfoJ32zqvtklQtxoyz-44" value="" style="rounded=0;whiteSpace=wrap;html=1;" vertex="1" parent="1">
          <mxGeometry x="535" y="210" width="295" height="190" as="geometry" />
        </mxCell>
        <mxCell id="2bRfoJ32zqvtklQtxoyz-47" style="edgeStyle=orthogonalEdgeStyle;rounded=0;orthogonalLoop=1;jettySize=auto;html=1;exitX=1;exitY=0.5;exitDx=0;exitDy=0;entryX=0;entryY=0.5;entryDx=0;entryDy=0;" edge="1" parent="1" source="2bRfoJ32zqvtklQtxoyz-1" target="2bRfoJ32zqvtklQtxoyz-44">
          <mxGeometry relative="1" as="geometry" />
        </mxCell>
        <mxCell id="2bRfoJ32zqvtklQtxoyz-1" value="" style="rounded=0;whiteSpace=wrap;html=1;" vertex="1" parent="1">
          <mxGeometry x="90" y="210" width="430" height="190" as="geometry" />
        </mxCell>
        <mxCell id="2bRfoJ32zqvtklQtxoyz-2" value="计算" style="text;html=1;align=center;verticalAlign=middle;resizable=0;points=[];autosize=1;" vertex="1" parent="1">
          <mxGeometry x="90" y="220" width="40" height="20" as="geometry" />
        </mxCell>
        <mxCell id="2bRfoJ32zqvtklQtxoyz-3" value="" style="rounded=0;whiteSpace=wrap;html=1;" vertex="1" parent="1">
          <mxGeometry x="100" y="245" width="120" height="60" as="geometry" />
        </mxCell>
        <mxCell id="2bRfoJ32zqvtklQtxoyz-4" value="sql" style="text;html=1;align=center;verticalAlign=middle;resizable=0;points=[];autosize=1;" vertex="1" parent="1">
          <mxGeometry x="100" y="245" width="30" height="20" as="geometry" />
        </mxCell>
        <mxCell id="2bRfoJ32zqvtklQtxoyz-5" value="" style="rounded=0;whiteSpace=wrap;html=1;" vertex="1" parent="1">
          <mxGeometry x="280" y="245" width="120" height="60" as="geometry" />
        </mxCell>
        <mxCell id="2bRfoJ32zqvtklQtxoyz-6" value="udf" style="text;html=1;align=center;verticalAlign=middle;resizable=0;points=[];autosize=1;" vertex="1" parent="1">
          <mxGeometry x="280" y="245" width="30" height="20" as="geometry" />
        </mxCell>
        <mxCell id="2bRfoJ32zqvtklQtxoyz-7" value="risk model definition" style="rounded=0;whiteSpace=wrap;html=1;" vertex="1" parent="1">
          <mxGeometry x="190" y="320" width="120" height="60" as="geometry" />
        </mxCell>
        <mxCell id="2bRfoJ32zqvtklQtxoyz-8" value="" style="rounded=0;whiteSpace=wrap;html=1;" vertex="1" parent="1">
          <mxGeometry x="90" y="750" width="430" height="110" as="geometry" />
        </mxCell>
        <mxCell id="2bRfoJ32zqvtklQtxoyz-9" value="data" style="text;html=1;align=center;verticalAlign=middle;resizable=0;points=[];autosize=1;" vertex="1" parent="1">
          <mxGeometry x="95" y="750" width="40" height="20" as="geometry" />
        </mxCell>
        <mxCell id="2bRfoJ32zqvtklQtxoyz-11" value="meta data" style="rounded=0;whiteSpace=wrap;html=1;" vertex="1" parent="1">
          <mxGeometry x="100.5" y="790" width="120" height="60" as="geometry" />
        </mxCell>
        <mxCell id="2bRfoJ32zqvtklQtxoyz-12" value="metric data" style="rounded=0;whiteSpace=wrap;html=1;" vertex="1" parent="1">
          <mxGeometry x="245" y="790" width="120" height="60" as="geometry" />
        </mxCell>
        <mxCell id="2bRfoJ32zqvtklQtxoyz-14" value="trace" style="rounded=0;whiteSpace=wrap;html=1;" vertex="1" parent="1">
          <mxGeometry x="390" y="790" width="120" height="60" as="geometry" />
        </mxCell>
        <mxCell id="2bRfoJ32zqvtklQtxoyz-16" value="raw sql" style="rounded=0;whiteSpace=wrap;html=1;" vertex="1" parent="1">
          <mxGeometry x="552.5" y="245" width="120" height="60" as="geometry" />
        </mxCell>
        <mxCell id="2bRfoJ32zqvtklQtxoyz-18" value="influence sql" style="rounded=0;whiteSpace=wrap;html=1;" vertex="1" parent="1">
          <mxGeometry x="552.5" y="315" width="120" height="60" as="geometry" />
        </mxCell>
        <mxCell id="2bRfoJ32zqvtklQtxoyz-19" value="rule compute" style="rounded=0;whiteSpace=wrap;html=1;" vertex="1" parent="1">
          <mxGeometry x="692.5" y="245" width="120" height="60" as="geometry" />
        </mxCell>
        <mxCell id="2bRfoJ32zqvtklQtxoyz-20" value="algorithm compute" style="rounded=0;whiteSpace=wrap;html=1;" vertex="1" parent="1">
          <mxGeometry x="692.5" y="315" width="120" height="60" as="geometry" />
        </mxCell>
        <mxCell id="2bRfoJ32zqvtklQtxoyz-28" value="" style="edgeStyle=orthogonalEdgeStyle;rounded=0;orthogonalLoop=1;jettySize=auto;html=1;" edge="1" parent="1" source="2bRfoJ32zqvtklQtxoyz-26" target="2bRfoJ32zqvtklQtxoyz-27">
          <mxGeometry relative="1" as="geometry" />
        </mxCell>
        <mxCell id="2bRfoJ32zqvtklQtxoyz-26" value="监控指标齐全度" style="rounded=0;whiteSpace=wrap;html=1;" vertex="1" parent="1">
          <mxGeometry x="560" y="440" width="120" height="60" as="geometry" />
        </mxCell>
        <mxCell id="2bRfoJ32zqvtklQtxoyz-30" value="" style="edgeStyle=orthogonalEdgeStyle;rounded=0;orthogonalLoop=1;jettySize=auto;html=1;" edge="1" parent="1" source="2bRfoJ32zqvtklQtxoyz-27" target="2bRfoJ32zqvtklQtxoyz-29">
          <mxGeometry relative="1" as="geometry" />
        </mxCell>
        <mxCell id="2bRfoJ32zqvtklQtxoyz-27" value="监控指标计算" style="rounded=0;whiteSpace=wrap;html=1;" vertex="1" parent="1">
          <mxGeometry x="690" y="440" width="120" height="60" as="geometry" />
        </mxCell>
        <mxCell id="2bRfoJ32zqvtklQtxoyz-32" value="" style="edgeStyle=orthogonalEdgeStyle;rounded=0;orthogonalLoop=1;jettySize=auto;html=1;" edge="1" parent="1" source="2bRfoJ32zqvtklQtxoyz-29" target="2bRfoJ32zqvtklQtxoyz-31">
          <mxGeometry relative="1" as="geometry" />
        </mxCell>
        <mxCell id="2bRfoJ32zqvtklQtxoyz-29" value="计算结果齐全度" style="rounded=0;whiteSpace=wrap;html=1;" vertex="1" parent="1">
          <mxGeometry x="820" y="440" width="120" height="60" as="geometry" />
        </mxCell>
        <mxCell id="2bRfoJ32zqvtklQtxoyz-31" value="聚合计算" style="rounded=0;whiteSpace=wrap;html=1;" vertex="1" parent="1">
          <mxGeometry x="950" y="440" width="120" height="60" as="geometry" />
        </mxCell>
        <mxCell id="2bRfoJ32zqvtklQtxoyz-37" value="" style="edgeStyle=orthogonalEdgeStyle;rounded=0;orthogonalLoop=1;jettySize=auto;html=1;" edge="1" parent="1" source="2bRfoJ32zqvtklQtxoyz-35" target="2bRfoJ32zqvtklQtxoyz-36">
          <mxGeometry relative="1" as="geometry" />
        </mxCell>
        <mxCell id="2bRfoJ32zqvtklQtxoyz-35" value="lindorm" style="rounded=0;whiteSpace=wrap;html=1;" vertex="1" parent="1">
          <mxGeometry x="90" y="680" width="120" height="60" as="geometry" />
        </mxCell>
        <mxCell id="2bRfoJ32zqvtklQtxoyz-39" value="" style="edgeStyle=orthogonalEdgeStyle;rounded=0;orthogonalLoop=1;jettySize=auto;html=1;" edge="1" parent="1" source="2bRfoJ32zqvtklQtxoyz-36" target="2bRfoJ32zqvtklQtxoyz-38">
          <mxGeometry relative="1" as="geometry" />
        </mxCell>
        <mxCell id="2bRfoJ32zqvtklQtxoyz-36" value="antq" style="rounded=0;whiteSpace=wrap;html=1;" vertex="1" parent="1">
          <mxGeometry x="90" y="610" width="120" height="60" as="geometry" />
        </mxCell>
        <mxCell id="2bRfoJ32zqvtklQtxoyz-41" value="" style="edgeStyle=orthogonalEdgeStyle;rounded=0;orthogonalLoop=1;jettySize=auto;html=1;" edge="1" parent="1" source="2bRfoJ32zqvtklQtxoyz-38" target="2bRfoJ32zqvtklQtxoyz-40">
          <mxGeometry relative="1" as="geometry" />
        </mxCell>
        <mxCell id="2bRfoJ32zqvtklQtxoyz-38" value="riskmodelcentermeta" style="rounded=0;whiteSpace=wrap;html=1;" vertex="1" parent="1">
          <mxGeometry x="90" y="540" width="120" height="60" as="geometry" />
        </mxCell>
        <mxCell id="2bRfoJ32zqvtklQtxoyz-42" value="" style="edgeStyle=orthogonalEdgeStyle;rounded=0;orthogonalLoop=1;jettySize=auto;html=1;" edge="1" parent="1" source="2bRfoJ32zqvtklQtxoyz-40" target="2bRfoJ32zqvtklQtxoyz-1">
          <mxGeometry relative="1" as="geometry">
            <Array as="points">
              <mxPoint x="150" y="440" />
              <mxPoint x="305" y="440" />
            </Array>
          </mxGeometry>
        </mxCell>
        <mxCell id="2bRfoJ32zqvtklQtxoyz-40" value="sls" style="rounded=0;whiteSpace=wrap;html=1;" vertex="1" parent="1">
          <mxGeometry x="90" y="470" width="120" height="60" as="geometry" />
        </mxCell>
        <mxCell id="2bRfoJ32zqvtklQtxoyz-48" value="zearch" style="rounded=0;whiteSpace=wrap;html=1;" vertex="1" parent="1">
          <mxGeometry x="850" y="275" width="120" height="60" as="geometry" />
        </mxCell>
        <mxCell id="2bRfoJ32zqvtklQtxoyz-52" value="" style="edgeStyle=orthogonalEdgeStyle;rounded=0;orthogonalLoop=1;jettySize=auto;html=1;" edge="1" parent="1" source="2bRfoJ32zqvtklQtxoyz-50" target="2bRfoJ32zqvtklQtxoyz-51">
          <mxGeometry relative="1" as="geometry" />
        </mxCell>
        <mxCell id="2bRfoJ32zqvtklQtxoyz-50" value="lindorm" style="rounded=0;whiteSpace=wrap;html=1;" vertex="1" parent="1">
          <mxGeometry x="245" y="680" width="120" height="60" as="geometry" />
        </mxCell>
        <mxCell id="2bRfoJ32zqvtklQtxoyz-56" style="edgeStyle=orthogonalEdgeStyle;rounded=0;orthogonalLoop=1;jettySize=auto;html=1;exitX=0.5;exitY=0;exitDx=0;exitDy=0;" edge="1" parent="1" source="2bRfoJ32zqvtklQtxoyz-51" target="2bRfoJ32zqvtklQtxoyz-1">
          <mxGeometry relative="1" as="geometry" />
        </mxCell>
        <mxCell id="2bRfoJ32zqvtklQtxoyz-51" value="sofamq" style="rounded=0;whiteSpace=wrap;html=1;" vertex="1" parent="1">
          <mxGeometry x="245" y="540" width="120" height="60" as="geometry" />
        </mxCell>
        <mxCell id="2bRfoJ32zqvtklQtxoyz-59" value="" style="edgeStyle=orthogonalEdgeStyle;rounded=0;orthogonalLoop=1;jettySize=auto;html=1;entryX=0.5;entryY=1;entryDx=0;entryDy=0;" edge="1" parent="1" source="2bRfoJ32zqvtklQtxoyz-57" target="2bRfoJ32zqvtklQtxoyz-1">
          <mxGeometry relative="1" as="geometry">
            <mxPoint x="450" y="600" as="targetPoint" />
            <Array as="points">
              <mxPoint x="450" y="440" />
              <mxPoint x="305" y="440" />
            </Array>
          </mxGeometry>
        </mxCell>
        <mxCell id="2bRfoJ32zqvtklQtxoyz-60" value="?" style="edgeLabel;html=1;align=center;verticalAlign=middle;resizable=0;points=[];" vertex="1" connectable="0" parent="2bRfoJ32zqvtklQtxoyz-59">
          <mxGeometry x="-0.3459" y="1" relative="1" as="geometry">
            <mxPoint as="offset" />
          </mxGeometry>
        </mxCell>
        <mxCell id="2bRfoJ32zqvtklQtxoyz-57" value="antmonitor" style="rounded=0;whiteSpace=wrap;html=1;" vertex="1" parent="1">
          <mxGeometry x="390" y="680" width="120" height="60" as="geometry" />
        </mxCell>
      </root>
    </mxGraphModel>
  </diagram>
</mxfile>
